Coordinates
version=1
nRows=22
nColumns=24
inDegrees=yes

Units are S.I. units (second, meters, Newtons, ...)
Angles are in degrees.

endheader
time	pelvis_tilt	pelvis_list	pelvis_rotation	pelvis_tx	pelvis_ty	pelvis_tz	hip_flexion_r	hip_adduction_r	hip_rotation_r	knee_angle_r	ankle_angle_r	subtalar_angle_r	mtp_angle_r	hip_flexion_l	hip_adduction_l	hip_rotation_l	knee_angle_l	ankle_angle_l	subtalar_angle_l	mtp_angle_l	lumbar_extension	lumbar_bending	lumbar_rotation
      1.42483333	      9.61606875	      5.26913931	     -4.38063401	      0.31600651	      1.02790766	      0.31390518	      5.63740143	     -8.46763559	     -1.18282505	    -71.16617531	    -13.07499556	    -11.64877733	      1.91486350	     -4.39563419	     11.06542546	      5.64306992	     -9.19007173	      1.82757134	    -18.57181942	     -7.35488212	    -22.54057735	     -0.49471052	     -2.82755306
      1.42900000	      9.58710995	      5.00273902	     -4.27745674	      0.32081235	      1.02878152	      0.31338818	      6.20859105	     -8.13798465	     -1.33302792	    -70.94009336	    -12.45653054	    -11.84527854	      1.84824943	     -4.92054080	     10.79149586	      5.75533226	     -8.73789810	      1.86744777	    -18.49811278	     -7.35494716	    -22.53626931	     -0.10078330	     -2.90410903
      1.43316667	      9.60610156	      4.75114659	     -4.16341788	      0.32562527	      1.02967246	      0.31288769	      6.70394906	     -7.82639891	     -1.50135019	    -70.64484702	    -11.83701087	    -12.01827276	      1.69167633	     -5.52473042	     10.53315102	      5.93860163	     -8.22684879	      1.87959741	    -18.47670257	     -7.35726483	    -22.56675748	      0.28133697	     -3.19810947
      1.43733333	      9.59912961	      4.49233656	     -4.04164159	      0.33043197	      1.03050047	      0.31237081	      7.21162463	     -7.50537168	     -1.68007560	    -70.29291204	    -11.18927675	    -12.19477403	      1.53565594	     -6.08362571	     10.26150891	      6.08367582	     -7.74850061	      1.88667429	    -18.43418300	     -7.36039065	    -22.57604462	      0.66650286	     -3.39629249
      1.44150000	      9.56909390	      4.25224225	     -3.91881193	      0.33522573	      1.03123521	      0.31187369	      7.73580227	     -7.20019135	     -1.85858520	    -69.89738784	    -10.49502206	    -12.39138070	      1.47585477	     -6.59298142	     10.00285660	      6.16754458	     -7.31181417	      1.89463803	    -18.33668271	     -7.36149458	    -22.56705054	      1.00011229	     -3.47773296
      1.44566667	      9.56043263	      3.99170075	     -3.78686888	      0.34002855	      1.03197807	      0.31136215	      8.20886233	     -6.87321005	     -2.04630039	    -69.42278346	     -9.81685848	    -12.54035569	      1.40648852	     -7.13653949	      9.72118432	      6.27991629	     -6.85667052	      1.92201859	    -18.24171687	     -7.36232155	    -22.57941217	      1.38489239	     -3.62565423
      1.44983333	      9.62140954	      3.76145162	     -3.65607813	      0.34484120	      1.03273279	      0.31082814	      8.59308796	     -6.60021552	     -2.25556936	    -68.90078212	     -9.14323098	    -12.65540681	      1.13985067	     -7.78165785	      9.47592134	      6.44722520	     -6.34072928	      1.92003977	    -18.19410643	     -7.36762167	    -22.65708904	      1.78195967	     -4.01356174
      1.45400000	      9.57103613	      3.50952751	     -3.52578779	      0.34966782	      1.03332123	      0.31033325	      9.08333634	     -6.27782623	     -2.43706296	    -68.31908814	     -8.46458609	    -12.76043629	      1.05252002	     -8.26277361	      9.19639083	      6.51882850	     -5.91675151	      1.97060431	    -18.09337410	     -7.36863735	    -22.60756989	      2.14738084	     -4.06845224
      1.45816667	      9.61612987	      3.26994878	     -3.39910904	      0.35446770	      1.03398148	      0.30985052	      9.45224958	     -5.97924690	     -2.62411714	    -67.67733413	     -7.77616712	    -12.82070382	      0.86301046	     -8.86901305	      8.93147887	      6.63563446	     -5.44024238	      2.01603177	    -17.96295113	     -7.37113116	    -22.67920378	      2.51221385	     -4.30716749
      1.46233333	      9.58035381	      3.02973499	     -3.26024983	      0.35929803	      1.03447465	      0.30936492	      9.89329589	     -5.67505852	     -2.82222894	    -66.98907225	     -7.07363416	    -12.91269158	      0.76333840	     -9.35221148	      8.65857663	      6.68474729	     -5.03693809	      2.05748757	    -17.85063373	     -7.37218532	    -22.63481310	      2.85639845	     -4.39530933
      1.46650000	      9.60405437	      2.80765380	     -3.13480940	      0.36411244	      1.03498304	      0.30889699	     10.25863141	     -5.39631171	     -3.00621265	    -66.25032755	     -6.37538472	    -12.93975181	      0.62746747	     -9.91272757	      8.40702813	      6.75907988	     -4.60039960	      2.11478230	    -17.71309974	     -7.37320533	    -22.66858469	      3.19158731	     -4.57068092
      1.47066667	      9.59563585	      2.58588772	     -3.00437968	      0.36892585	      1.03540899	      0.30844990	     10.64340705	     -5.11004996	     -3.18678667	    -65.46014889	     -5.67784727	    -12.98420874	      0.51712702	    -10.42310185	      8.15104751	      6.81696107	     -4.19170996	      2.16065493	    -17.57858386	     -7.37383502	    -22.67299466	      3.51752491	     -4.69602574
      1.47483333	      9.64275887	      2.39279154	     -2.87976483	      0.37372256	      1.03581888	      0.30799865	     10.95960136	     -4.86767337	     -3.37086443	    -64.63435215	     -4.96206696	    -13.00058980	      0.15548216	    -11.00159661	      7.92713397	      6.89396387	     -3.75601302	      2.20031714	    -17.42844746	     -7.37798835	    -22.74615242	      3.84138259	     -4.97726608
      1.47900000	      9.59400576	      2.17624533	     -2.75991864	      0.37855715	      1.03608003	      0.30758469	     11.36063280	     -4.58024112	     -3.52732909	    -63.74366575	     -4.31522869	    -12.98706557	      0.05167727	    -11.45167947	      7.67442405	      6.94095393	     -3.37916965	      2.27398132	    -17.31248314	     -7.37746398	    -22.69040434	      4.14583569	     -5.00700770
      1.48316667	      9.60099678	      1.98972613	     -2.60534720	      0.38336881	      1.03635752	      0.30712686	     11.68239284	     -4.34323288	     -3.72701142	    -62.81272285	     -3.64824770	    -12.95546934	     -2.89577822	    -11.97943604	      7.44638493	      7.09838080	     -2.95733720	      2.27045173	    -17.25205030	     -7.41828105	    -22.69183510	      4.48075247	     -5.35499559
      1.48733333	      9.62044934	      1.80800416	     -2.53147627	      0.38819680	      1.03655632	      0.30678154	     11.99178593	     -4.09517620	     -3.83444010	    -61.84473515	     -2.96558063	    -12.86624054	     -2.92786170	    -12.50175478	      7.23837046	      7.08788102	     -2.57219454	      2.38522224	    -17.08501407	     -7.41599110	    -22.73762478	      4.71994839	     -5.31793240
      1.49150000	      9.61109316	      1.62099368	     -2.41832597	      0.39302377	      1.03670293	      0.30641319	     12.30379127	     -3.84364183	     -3.97905699	    -60.80941298	     -2.35889275	    -12.83210284	     -2.95326971	    -12.97662718	      7.01404978	      7.12018801	     -2.21894754	      2.45596167	    -16.95851252	     -7.41442952	    -22.73740517	      4.99244579	     -5.38281409
      1.49566667	      9.64089773	      1.46069052	     -2.31785191	      0.39785154	      1.03680296	      0.30605281	     12.56614659	     -3.62730798	     -4.10925496	    -59.74447241	     -1.78017729	    -12.77219587	     -2.99865244	    -13.50796174	      6.82087597	      7.18619480	     -1.83240570	      2.53154468	    -16.83358783	     -7.41254153	    -22.78070894	      5.24339641	     -5.52322934
      1.49983333	      9.62739015	      1.31088553	     -2.21518856	      0.40268429	      1.03680699	      0.30570841	     12.85989121	     -3.41875813	     -4.23409842	    -58.63224379	     -1.23696879	    -12.71409432	     -3.04411517	    -13.97493447	      6.63669324	      7.25342823	     -1.48053979	      2.59758324	    -16.74435109	     -7.41197957	    -22.77024668	      5.47669825	     -5.63345146
      1.50400000	      9.63707656	      1.16692374	     -2.11766409	      0.40751914	      1.03678592	      0.30538135	     13.11193199	     -3.21729467	     -4.35062378	    -57.47372794	     -0.73368179	    -12.64961347	     -3.09095025	    -14.46558470	      6.45956309	      7.32477483	     -1.12973732	      2.66318776	    -16.66938766	     -7.41238075	    -22.78860687	      5.70429913	     -5.74391519
      1.50816667	      9.59418881	      1.03778835	     -2.01707825	      0.41235039	      1.03664246	      0.30506468	     13.40825086	     -3.02636152	     -4.45654579	    -56.27609343	     -0.25565419	    -12.59567624	     -3.11914826	    -14.87458196	      6.29642735	      7.38946993	     -0.82771643	      2.72573299	    -16.60584185	     -7.41241147	    -22.74952299	      5.90836208	     -5.81199524
      1.51233333	      9.57346894	      0.91329593	     -1.92266615	      0.41719019	      1.03648269	      0.30476128	     13.66140716	     -2.84426352	     -4.55887547	    -55.02820341	      0.16750186	    -12.52709745	     -3.15131813	    -15.31493761	      6.13904576	      7.47211809	     -0.50905840	      2.79681943	    -16.55488659	     -7.41336841	    -22.73385076	      6.11213715	     -5.91106501
